<svg width="113" height="20" viewBox="0 0 113 20" fill="none" xmlns="http://www.w3.org/2000/svg">
<g filter="url(#filter0_d_1_3)">
<path d="M6.57173 9L4.18537 0.272727H5.25923L7.0831 7.38068H7.16832L9.02628 0.272727H10.2195L12.0774 7.38068H12.1626L13.9865 0.272727H15.0604L12.674 9H11.5831L9.65696 2.04545H9.58878L7.66264 9H6.57173ZM18.3757 9.13636C17.745 9.13636 17.201 8.99716 16.7436 8.71875C16.2891 8.4375 15.9382 8.04545 15.6911 7.54261C15.4467 7.03693 15.3246 6.44886 15.3246 5.77841C15.3246 5.10795 15.4467 4.51705 15.6911 4.00568C15.9382 3.49148 16.282 3.09091 16.7223 2.80398C17.1655 2.5142 17.6825 2.36932 18.2734 2.36932C18.6143 2.36932 18.951 2.42614 19.2834 2.53977C19.6158 2.65341 19.9183 2.83807 20.1911 3.09375C20.4638 3.34659 20.6811 3.68182 20.843 4.09943C21.005 4.51705 21.0859 5.03125 21.0859 5.64205V6.06818H16.0405V5.19886H20.0632C20.0632 4.82955 19.9893 4.5 19.8416 4.21023C19.6967 3.92045 19.4893 3.69176 19.2195 3.52415C18.9524 3.35653 18.6371 3.27273 18.2734 3.27273C17.8729 3.27273 17.5263 3.37216 17.2337 3.57102C16.9439 3.76705 16.7209 4.02273 16.5646 4.33807C16.4084 4.65341 16.3303 4.99148 16.3303 5.35227V5.93182C16.3303 6.42614 16.4155 6.84517 16.5859 7.18892C16.7592 7.52983 16.9993 7.78977 17.3061 7.96875C17.6129 8.14489 17.9695 8.23295 18.3757 8.23295C18.6399 8.23295 18.8786 8.19602 19.0916 8.12216C19.3075 8.04545 19.4936 7.93182 19.6499 7.78125C19.8061 7.62784 19.9268 7.4375 20.0121 7.21023L20.9837 7.48295C20.8814 7.8125 20.7095 8.10227 20.468 8.35227C20.2266 8.59943 19.9283 8.79261 19.5732 8.93182C19.218 9.06818 18.8189 9.13636 18.3757 9.13636ZM22.7521 9V0.272727H23.7578V3.49432H23.843C23.9169 3.38068 24.0192 3.2358 24.1499 3.05966C24.2834 2.88068 24.4737 2.72159 24.7209 2.58239C24.9709 2.44034 25.3089 2.36932 25.7351 2.36932C26.2862 2.36932 26.772 2.5071 27.1925 2.78267C27.6129 3.05824 27.9411 3.44886 28.1768 3.95455C28.4126 4.46023 28.5305 5.05682 28.5305 5.74432C28.5305 6.4375 28.4126 7.03835 28.1768 7.54688C27.9411 8.05256 27.6143 8.4446 27.1967 8.72301C26.7791 8.99858 26.2976 9.13636 25.7521 9.13636C25.3317 9.13636 24.995 9.06676 24.7422 8.92756C24.4893 8.78551 24.2947 8.625 24.1584 8.44602C24.022 8.2642 23.9169 8.11364 23.843 7.99432H23.7237V9H22.7521ZM23.7408 5.72727C23.7408 6.22159 23.8132 6.65767 23.9581 7.03551C24.103 7.41051 24.3146 7.70455 24.593 7.91761C24.8714 8.12784 25.2124 8.23295 25.6158 8.23295C26.0362 8.23295 26.3871 8.12216 26.6683 7.90057C26.9524 7.67614 27.1655 7.375 27.3075 6.99716C27.4524 6.61648 27.5249 6.19318 27.5249 5.72727C27.5249 5.26705 27.4538 4.85227 27.3118 4.48295C27.1726 4.1108 26.9609 3.81676 26.6768 3.60085C26.3956 3.3821 26.0419 3.27273 25.6158 3.27273C25.2067 3.27273 24.8629 3.37642 24.5845 3.58381C24.3061 3.78835 24.0959 4.07528 23.9538 4.4446C23.8118 4.81108 23.7408 5.23864 23.7408 5.72727ZM33.8189 4.78977V5.72727H30.0007V4.78977H33.8189ZM35.5884 11.4545V2.45455H36.56V3.49432H36.6793C36.7532 3.38068 36.8555 3.2358 36.9862 3.05966C37.1197 2.88068 37.31 2.72159 37.5572 2.58239C37.8072 2.44034 38.1452 2.36932 38.5714 2.36932C39.1225 2.36932 39.6083 2.5071 40.0288 2.78267C40.4492 3.05824 40.7773 3.44886 41.0131 3.95455C41.2489 4.46023 41.3668 5.05682 41.3668 5.74432C41.3668 6.4375 41.2489 7.03835 41.0131 7.54688C40.7773 8.05256 40.4506 8.4446 40.033 8.72301C39.6154 8.99858 39.1339 9.13636 38.5884 9.13636C38.168 9.13636 37.8313 9.06676 37.5785 8.92756C37.3256 8.78551 37.131 8.625 36.9947 8.44602C36.8583 8.2642 36.7532 8.11364 36.6793 7.99432H36.5941V11.4545H35.5884ZM36.5771 5.72727C36.5771 6.22159 36.6495 6.65767 36.7944 7.03551C36.9393 7.41051 37.1509 7.70455 37.4293 7.91761C37.7077 8.12784 38.0487 8.23295 38.4521 8.23295C38.8725 8.23295 39.2234 8.12216 39.5046 7.90057C39.7887 7.67614 40.0018 7.375 40.1438 6.99716C40.2887 6.61648 40.3612 6.19318 40.3612 5.72727C40.3612 5.26705 40.2901 4.85227 40.1481 4.48295C40.0089 4.1108 39.7972 3.81676 39.5131 3.60085C39.2319 3.3821 38.8782 3.27273 38.4521 3.27273C38.043 3.27273 37.6992 3.37642 37.4208 3.58381C37.1424 3.78835 36.9322 4.07528 36.7901 4.4446C36.6481 4.81108 36.5771 5.23864 36.5771 5.72727ZM44.8271 9.15341C44.4123 9.15341 44.0359 9.07528 43.6978 8.91903C43.3597 8.75994 43.0913 8.53125 42.8924 8.23295C42.6935 7.93182 42.5941 7.56818 42.5941 7.14205C42.5941 6.76705 42.668 6.46307 42.8157 6.23011C42.9634 5.99432 43.1609 5.80966 43.408 5.67614C43.6552 5.54261 43.9279 5.44318 44.2262 5.37784C44.5273 5.30966 44.8299 5.25568 45.1339 5.21591C45.5316 5.16477 45.854 5.12642 46.1012 5.10085C46.3512 5.07244 46.533 5.02557 46.6467 4.96023C46.7631 4.89489 46.8214 4.78125 46.8214 4.61932V4.58523C46.8214 4.16477 46.7063 3.83807 46.4762 3.60511C46.2489 3.37216 45.9038 3.25568 45.4407 3.25568C44.9606 3.25568 44.5842 3.3608 44.3114 3.57102C44.0387 3.78125 43.8469 4.00568 43.7362 4.24432L42.7816 3.90341C42.9521 3.50568 43.1793 3.19602 43.4634 2.97443C43.7504 2.75 44.0629 2.59375 44.4009 2.50568C44.7418 2.41477 45.0771 2.36932 45.4066 2.36932C45.6168 2.36932 45.8583 2.39489 46.131 2.44602C46.4066 2.49432 46.6722 2.59517 46.9279 2.74858C47.1864 2.90199 47.4009 3.13352 47.5714 3.44318C47.7418 3.75284 47.8271 4.16761 47.8271 4.6875V9H46.8214V8.11364H46.7702C46.7021 8.25568 46.5884 8.40767 46.4293 8.5696C46.2702 8.73153 46.0586 8.86932 45.7944 8.98295C45.5302 9.09659 45.2077 9.15341 44.8271 9.15341ZM44.9805 8.25C45.3782 8.25 45.7134 8.17188 45.9862 8.01562C46.2617 7.85938 46.4691 7.65767 46.6083 7.41051C46.7504 7.16335 46.8214 6.90341 46.8214 6.63068V5.71023C46.7788 5.76136 46.685 5.80824 46.5401 5.85085C46.3981 5.89062 46.2333 5.92614 46.0458 5.95739C45.8612 5.9858 45.6808 6.01136 45.5046 6.03409C45.3313 6.05398 45.1907 6.07102 45.0827 6.08523C44.8214 6.11932 44.5771 6.17472 44.3498 6.25142C44.1254 6.32528 43.9435 6.4375 43.8043 6.58807C43.668 6.7358 43.5998 6.9375 43.5998 7.19318C43.5998 7.54261 43.729 7.80682 43.9876 7.9858C44.2489 8.16193 44.5799 8.25 44.9805 8.25ZM49.2536 7.32955H50.3274C50.3501 7.625 50.4837 7.84943 50.728 8.00284C50.9751 8.15625 51.2962 8.23295 51.6911 8.23295C52.0945 8.23295 52.4396 8.15057 52.7266 7.9858C53.0135 7.81818 53.157 7.5483 53.157 7.17614C53.157 6.95739 53.103 6.76705 52.995 6.60511C52.8871 6.44034 52.7351 6.3125 52.5391 6.22159C52.343 6.13068 52.1115 6.08523 51.8445 6.08523H50.7195V5.18182H51.8445C52.245 5.18182 52.5405 5.09091 52.7308 4.90909C52.924 4.72727 53.0206 4.5 53.0206 4.22727C53.0206 3.93466 52.9169 3.70028 52.7095 3.52415C52.5021 3.34517 52.2081 3.25568 51.8274 3.25568C51.4439 3.25568 51.1243 3.34233 50.8686 3.51562C50.6129 3.68608 50.478 3.90625 50.4638 4.17614H49.407C49.4183 3.82386 49.5263 3.51278 49.7308 3.2429C49.9354 2.97017 50.2138 2.7571 50.5661 2.60369C50.9183 2.44744 51.3217 2.36932 51.7763 2.36932C52.2365 2.36932 52.6357 2.45028 52.9737 2.61222C53.3146 2.77131 53.5774 2.98864 53.7621 3.2642C53.9496 3.53693 54.0433 3.84659 54.0433 4.19318C54.0433 4.5625 53.9396 4.8608 53.7322 5.08807C53.5249 5.31534 53.2649 5.47727 52.9524 5.57386V5.64205C53.1996 5.65909 53.4141 5.73864 53.5959 5.88068C53.7805 6.01989 53.924 6.20312 54.0263 6.4304C54.1286 6.65483 54.1797 6.90341 54.1797 7.17614C54.1797 7.57386 54.0732 7.92045 53.8601 8.21591C53.647 8.50852 53.3544 8.7358 52.9822 8.89773C52.6101 9.05682 52.1854 9.13636 51.7081 9.13636C51.245 9.13636 50.8303 9.06108 50.4638 8.91051C50.0973 8.7571 49.8061 8.54545 49.5902 8.27557C49.3771 8.00284 49.2649 7.6875 49.2536 7.32955ZM55.5923 11.4545V2.45455H56.5639V3.49432H56.6832C56.7571 3.38068 56.8594 3.2358 56.9901 3.05966C57.1236 2.88068 57.3139 2.72159 57.5611 2.58239C57.8111 2.44034 58.1491 2.36932 58.5753 2.36932C59.1264 2.36932 59.6122 2.5071 60.0327 2.78267C60.4531 3.05824 60.7813 3.44886 61.017 3.95455C61.2528 4.46023 61.3707 5.05682 61.3707 5.74432C61.3707 6.4375 61.2528 7.03835 61.017 7.54688C60.7813 8.05256 60.4545 8.4446 60.0369 8.72301C59.6193 8.99858 59.1378 9.13636 58.5923 9.13636C58.1719 9.13636 57.8352 9.06676 57.5824 8.92756C57.3295 8.78551 57.1349 8.625 56.9986 8.44602C56.8622 8.2642 56.7571 8.11364 56.6832 7.99432H56.598V11.4545H55.5923ZM56.581 5.72727C56.581 6.22159 56.6534 6.65767 56.7983 7.03551C56.9432 7.41051 57.1548 7.70455 57.4332 7.91761C57.7116 8.12784 58.0526 8.23295 58.456 8.23295C58.8764 8.23295 59.2273 8.12216 59.5085 7.90057C59.7926 7.67614 60.0057 7.375 60.1477 6.99716C60.2926 6.61648 60.3651 6.19318 60.3651 5.72727C60.3651 5.26705 60.294 4.85227 60.152 4.48295C60.0128 4.1108 59.8011 3.81676 59.517 3.60085C59.2358 3.3821 58.8821 3.27273 58.456 3.27273C58.0469 3.27273 57.7031 3.37642 57.4247 3.58381C57.1463 3.78835 56.9361 4.07528 56.794 4.4446C56.652 4.81108 56.581 5.23864 56.581 5.72727ZM64.831 9.15341C64.4162 9.15341 64.0398 9.07528 63.7017 8.91903C63.3636 8.75994 63.0952 8.53125 62.8963 8.23295C62.6974 7.93182 62.598 7.56818 62.598 7.14205C62.598 6.76705 62.6719 6.46307 62.8196 6.23011C62.9673 5.99432 63.1648 5.80966 63.4119 5.67614C63.6591 5.54261 63.9318 5.44318 64.2301 5.37784C64.5313 5.30966 64.8338 5.25568 65.1378 5.21591C65.5355 5.16477 65.858 5.12642 66.1051 5.10085C66.3551 5.07244 66.5369 5.02557 66.6506 4.96023C66.767 4.89489 66.8253 4.78125 66.8253 4.61932V4.58523C66.8253 4.16477 66.7102 3.83807 66.4801 3.60511C66.2528 3.37216 65.9077 3.25568 65.4446 3.25568C64.9645 3.25568 64.5881 3.3608 64.3153 3.57102C64.0426 3.78125 63.8509 4.00568 63.7401 4.24432L62.7855 3.90341C62.956 3.50568 63.1832 3.19602 63.4673 2.97443C63.7543 2.75 64.0668 2.59375 64.4048 2.50568C64.7457 2.41477 65.081 2.36932 65.4105 2.36932C65.6207 2.36932 65.8622 2.39489 66.1349 2.44602C66.4105 2.49432 66.6761 2.59517 66.9318 2.74858C67.1903 2.90199 67.4048 3.13352 67.5753 3.44318C67.7457 3.75284 67.831 4.16761 67.831 4.6875V9H66.8253V8.11364H66.7741C66.706 8.25568 66.5923 8.40767 66.4332 8.5696C66.2741 8.73153 66.0625 8.86932 65.7983 8.98295C65.5341 9.09659 65.2116 9.15341 64.831 9.15341ZM64.9844 8.25C65.3821 8.25 65.7173 8.17188 65.9901 8.01562C66.2656 7.85938 66.473 7.65767 66.6122 7.41051C66.7543 7.16335 66.8253 6.90341 66.8253 6.63068V5.71023C66.7827 5.76136 66.6889 5.80824 66.544 5.85085C66.402 5.89062 66.2372 5.92614 66.0497 5.95739C65.8651 5.9858 65.6847 6.01136 65.5085 6.03409C65.3352 6.05398 65.1946 6.07102 65.0866 6.08523C64.8253 6.11932 64.581 6.17472 64.3537 6.25142C64.1293 6.32528 63.9474 6.4375 63.8082 6.58807C63.6719 6.7358 63.6037 6.9375 63.6037 7.19318C63.6037 7.54261 63.733 7.80682 63.9915 7.9858C64.2528 8.16193 64.5838 8.25 64.9844 8.25ZM74.5245 0L75.0359 0.613636C74.837 0.806818 74.6069 0.941761 74.3455 1.01847C74.0842 1.09517 73.7887 1.14205 73.4592 1.15909C73.1296 1.17614 72.7631 1.19318 72.3597 1.21023C71.9052 1.22727 71.5288 1.33807 71.2305 1.54261C70.9322 1.74716 70.7021 2.04261 70.5401 2.42898C70.3782 2.81534 70.2745 3.28977 70.229 3.85227H70.3143C70.5359 3.44318 70.8427 3.14205 71.2347 2.94886C71.6268 2.75568 72.0472 2.65909 72.4961 2.65909C73.0075 2.65909 73.4677 2.77841 73.8768 3.01705C74.2859 3.25568 74.6097 3.60938 74.8484 4.07812C75.087 4.54688 75.2063 5.125 75.2063 5.8125C75.2063 6.49716 75.0842 7.08807 74.8398 7.58523C74.5984 8.08239 74.2589 8.46591 73.8214 8.7358C73.3867 9.00284 72.8768 9.13636 72.2915 9.13636C71.7063 9.13636 71.1935 8.99858 70.7532 8.72301C70.3129 8.4446 69.9705 8.03267 69.7262 7.48722C69.4819 6.93892 69.3597 6.26136 69.3597 5.45455V4.75568C69.3597 3.2983 69.6069 2.19318 70.1012 1.44034C70.5984 0.6875 71.3455 0.298295 72.3427 0.272727C72.695 0.261364 73.0089 0.258523 73.2844 0.264204C73.56 0.269886 73.8001 0.257102 74.0046 0.225852C74.2092 0.194602 74.3825 0.119318 74.5245 0ZM72.2915 8.23295C72.6864 8.23295 73.0259 8.13352 73.31 7.93466C73.5969 7.7358 73.8171 7.45597 73.9705 7.09517C74.1239 6.73153 74.2006 6.30398 74.2006 5.8125C74.2006 5.33523 74.1225 4.92898 73.9663 4.59375C73.8129 4.25852 73.5927 4.00284 73.3058 3.8267C73.0188 3.65057 72.6751 3.5625 72.2745 3.5625C71.9819 3.5625 71.7191 3.61222 71.4862 3.71165C71.2532 3.81108 71.0543 3.95739 70.8896 4.15057C70.7248 4.34375 70.5969 4.57955 70.506 4.85795C70.418 5.13636 70.3711 5.45455 70.3654 5.8125C70.3654 6.54545 70.5373 7.1321 70.881 7.57244C71.2248 8.01278 71.695 8.23295 72.2915 8.23295ZM79.4038 9.13636C78.8129 9.13636 78.2944 8.99574 77.8484 8.71449C77.4052 8.43324 77.0586 8.03977 76.8086 7.53409C76.5614 7.02841 76.4379 6.4375 76.4379 5.76136C76.4379 5.07955 76.5614 4.48437 76.8086 3.97585C77.0586 3.46733 77.4052 3.07244 77.8484 2.79119C78.2944 2.50994 78.8129 2.36932 79.4038 2.36932C79.9947 2.36932 80.5117 2.50994 80.9549 2.79119C81.4009 3.07244 81.7475 3.46733 81.9947 3.97585C82.2447 4.48437 82.3697 5.07955 82.3697 5.76136C82.3697 6.4375 82.2447 7.02841 81.9947 7.53409C81.7475 8.03977 81.4009 8.43324 80.9549 8.71449C80.5117 8.99574 79.9947 9.13636 79.4038 9.13636ZM79.4038 8.23295C79.8526 8.23295 80.2219 8.1179 80.5117 7.88778C80.8015 7.65767 81.016 7.35511 81.1552 6.98011C81.2944 6.60511 81.364 6.19886 81.364 5.76136C81.364 5.32386 81.2944 4.91619 81.1552 4.53835C81.016 4.16051 80.8015 3.85511 80.5117 3.62216C80.2219 3.3892 79.8526 3.27273 79.4038 3.27273C78.9549 3.27273 78.5856 3.3892 78.2958 3.62216C78.006 3.85511 77.7915 4.16051 77.6523 4.53835C77.5131 4.91619 77.4435 5.32386 77.4435 5.76136C77.4435 6.19886 77.5131 6.60511 77.6523 6.98011C77.7915 7.35511 78.006 7.65767 78.2958 7.88778C78.5856 8.1179 78.9549 8.23295 79.4038 8.23295ZM83.0494 3.39205V2.45455H88.3675V3.39205H86.2198V9H85.2141V3.39205H83.0494ZM94.5401 2.45455V9H93.5344V2.45455H94.5401ZM94.1481 5.57386V6.51136C93.9208 6.59659 93.695 6.67188 93.4705 6.73722C93.2461 6.79972 93.0103 6.84943 92.7631 6.88636C92.516 6.92045 92.2447 6.9375 91.9492 6.9375C91.2077 6.9375 90.6126 6.73722 90.1637 6.33665C89.7177 5.93608 89.4947 5.33523 89.4947 4.53409V2.4375H90.5004V4.53409C90.5004 4.86932 90.5643 5.14489 90.6921 5.3608C90.82 5.5767 90.9933 5.73722 91.212 5.84233C91.4308 5.94744 91.6765 6 91.9492 6C92.3754 6 92.7603 5.96165 93.104 5.88494C93.4506 5.8054 93.7987 5.7017 94.1481 5.57386ZM97.391 7.51705L100.544 2.45455H101.703V9H100.698V3.9375L97.5614 9H96.3853V2.45455H97.391V7.51705ZM103.545 9V2.45455H104.551V5.30114H105.216L107.568 2.45455H108.864L106.222 5.60795L108.898 9H107.602L105.455 6.23864H104.551V9H103.545Z" fill="white"/>
</g>
<defs>
<filter id="filter0_d_1_3" x="0.185371" y="0" width="112.712" height="19.4545" filterUnits="userSpaceOnUse" color-interpolation-filters="sRGB">
<feFlood flood-opacity="0" result="BackgroundImageFix"/>
<feColorMatrix in="SourceAlpha" type="matrix" values="0 0 0 0 0 0 0 0 0 0 0 0 0 0 0 0 0 0 127 0" result="hardAlpha"/>
<feOffset dy="4"/>
<feGaussianBlur stdDeviation="2"/>
<feComposite in2="hardAlpha" operator="out"/>
<feColorMatrix type="matrix" values="0 0 0 0 0 0 0 0 0 0 0 0 0 0 0 0 0 0 0.25 0"/>
<feBlend mode="normal" in2="BackgroundImageFix" result="effect1_dropShadow_1_3"/>
<feBlend mode="normal" in="SourceGraphic" in2="effect1_dropShadow_1_3" result="shape"/>
</filter>
</defs>
</svg>
